<svg width="198" height="55" viewBox="0 0 198 55" fill="none" xmlns="http://www.w3.org/2000/svg">
  <path fill-rule="evenodd" clip-rule="evenodd"
    d="M31.6216 5.65884C32.8041 4.99932 32.8189 3.30316 31.6479 2.62324V2.62324C30.4059 1.90212 28.8727 1.90212 27.6308 2.62324L14.9872 9.96469C13.138 11.0384 12 13.0151 12 15.1534V29.8807C12 31.3063 12.7587 32.6241 13.9915 33.3399L20.7017 37.2362C20.834 37.313 21 37.2115 21 37.0586V37.0586V15.1062C21 12.9307 22.1776 10.9257 24.0776 9.86605L31.6216 5.65884Z"
    fill="#333333" />
  <path fill-rule="evenodd" clip-rule="evenodd"
    d="M13.4858 7.29294C14.3947 6.78939 14.4091 5.48773 13.5116 4.9642V4.9642C12.5775 4.41932 11.4225 4.41932 10.4884 4.96421L1.48839 10.2142C0.566732 10.7518 0 11.7385 0 12.8055V23.3593C0 24.4263 0.566733 25.413 1.48839 25.9507L6.1408 28.6646C6.87155 29.0908 8 28.1433 8 27.2973V27.2973V13.8675C8 11.686 9.184 9.6764 11.0922 8.61917L13.4858 7.29294Z"
    fill="#333333" />
  <path fill-rule="evenodd" clip-rule="evenodd"
    d="M52.3843 0.795884C50.535 -0.265313 48.2613 -0.265313 46.412 0.795884L28.0138 11.353C26.1496 12.4227 25 14.4078 25 16.5571V37.6076C25 39.7569 26.1496 41.742 28.0138 42.8117L46.4119 53.3689C48.2613 54.43 50.535 54.43 52.3843 53.3689L70.7825 42.8117C72.6467 41.742 73.7963 39.7569 73.7963 37.6076V16.5571C73.7963 14.4078 72.6467 12.4227 70.7825 11.353L52.3843 0.795884ZM52.0336 22.0078C52.6875 22.6351 53.37 23.2899 54.2435 23.2899H54.9073C56.4249 23.2899 57.7277 22.0123 57.1879 20.5939C57.0454 20.2197 56.8707 19.8636 56.6636 19.5255C56.0134 18.4459 55.0878 17.6094 53.8869 17.016C52.6859 16.4225 51.2627 16.1258 49.6172 16.1258C48.0049 16.1258 46.575 16.419 45.3276 17.0052C44.0869 17.5915 43.1148 18.4102 42.4115 19.4612C41.7148 20.5051 41.3698 21.7241 41.3764 23.1183C41.3698 24.8342 41.884 26.1891 42.9191 27.1829C43.9608 28.1696 45.384 28.8738 47.1888 29.2957L49.2191 29.7676C49.9755 29.9463 50.576 30.1393 51.0205 30.3467C51.4651 30.5469 51.7835 30.7757 51.976 31.0331C52.175 31.2833 52.2779 31.5765 52.2845 31.9125C52.2779 32.27 52.1717 32.5881 51.966 32.867C51.7603 33.1458 51.4584 33.3639 51.0603 33.5212C50.6622 33.6785 50.1679 33.7571 49.5774 33.7571C48.8741 33.7571 48.267 33.6392 47.7561 33.4032C47.2518 33.1673 46.8603 32.8205 46.5816 32.3629C46.0642 31.5132 45.3325 30.6684 44.3376 30.6684H43.5559C42.068 30.6684 40.7997 31.9004 41.1783 33.3394C41.3596 34.0285 41.6181 34.6468 41.9537 35.1942C42.6835 36.3668 43.7053 37.2355 45.0191 37.8003C46.3395 38.3651 47.8854 38.6476 49.657 38.6476C51.3821 38.6476 52.8584 38.3866 54.0859 37.8647C55.32 37.3427 56.2689 36.5813 56.9324 35.5803C57.5959 34.5793 57.9309 33.3567 57.9376 31.9125C57.9309 31.076 57.8049 30.3038 57.5594 29.596C57.3205 28.8881 56.9456 28.2518 56.4347 27.687C55.9238 27.115 55.267 26.6181 54.4641 26.1963C53.6613 25.7744 52.6959 25.4348 51.5679 25.1774L49.8959 24.7913C49.4115 24.6841 48.9935 24.5625 48.6418 24.4267C48.2902 24.2908 48.0015 24.1407 47.776 23.9763C47.5504 23.8047 47.3845 23.6152 47.2783 23.4079C47.1788 23.1934 47.1357 22.9538 47.1489 22.6893C47.1556 22.3676 47.2451 22.0816 47.4177 21.8313C47.5902 21.5811 47.8556 21.3845 48.2139 21.2415C48.5788 21.0913 49.0466 21.0163 49.6172 21.0163C50.5129 21.0163 51.1798 21.2165 51.6177 21.6168C51.7561 21.7415 51.8942 21.874 52.0336 22.0078Z"
    fill="#333333" />
  <path
    d="M99.7286 22.6602C99.6387 21.6709 99.2385 20.9021 98.528 20.3535C97.8266 19.7959 96.8239 19.5171 95.5199 19.5171C94.6566 19.5171 93.9372 19.6296 93.3616 19.8544C92.7861 20.0792 92.3544 20.3895 92.0666 20.7851C91.7789 21.1718 91.6305 21.617 91.6215 22.1206C91.6035 22.5343 91.6844 22.8985 91.8643 23.2132C92.0531 23.528 92.3229 23.8068 92.6737 24.0496C93.0334 24.2834 93.465 24.4902 93.9686 24.6701C94.4722 24.8499 95.0388 25.0073 95.6683 25.1422L98.0424 25.6818C99.4093 25.9785 100.614 26.3742 101.658 26.8688C102.71 27.3635 103.591 27.9525 104.301 28.6359C105.021 29.3194 105.565 30.1063 105.934 30.9966C106.302 31.8869 106.491 32.8851 106.5 33.9912C106.491 35.7358 106.051 37.2332 105.178 38.4832C104.306 39.7332 103.051 40.6909 101.415 41.3564C99.787 42.0219 97.8221 42.3546 95.5199 42.3546C93.2087 42.3546 91.1943 42.0084 89.4767 41.3159C87.759 40.6235 86.4236 39.5713 85.4703 38.1594C84.5171 36.7475 84.027 34.9625 84 32.8042H90.394C90.4479 33.6945 90.6862 34.4364 91.1089 35.0299C91.5316 35.6234 92.1116 36.0731 92.849 36.3788C93.5954 36.6846 94.4587 36.8375 95.439 36.8375C96.3383 36.8375 97.1027 36.7161 97.7322 36.4733C98.3707 36.2305 98.8608 35.8932 99.2025 35.4616C99.5442 35.0299 99.7196 34.5353 99.7286 33.9777C99.7196 33.4561 99.5577 33.011 99.243 32.6423C98.9282 32.2646 98.4426 31.9408 97.7861 31.6711C97.1386 31.3923 96.3113 31.136 95.3041 30.9022L92.4174 30.2277C90.0252 29.6791 88.1412 28.7933 86.7653 27.5703C85.3894 26.3383 84.7059 24.6746 84.7149 22.5792C84.7059 20.8706 85.1646 19.3733 86.0908 18.0873C87.0171 16.8013 88.2986 15.7986 89.9353 15.0791C91.572 14.3597 93.4381 14 95.5334 14C97.6737 14 99.5307 14.3642 101.104 15.0926C102.687 15.8121 103.915 16.8238 104.787 18.1277C105.659 19.4317 106.105 20.9425 106.123 22.6602H99.7286Z"
    fill="#333333" />
  <path
    d="M116.899 42.3951C114.732 42.3951 112.861 41.9679 111.287 41.1136C109.723 40.2503 108.518 39.0227 107.672 37.431C106.836 35.8303 106.418 33.9283 106.418 31.725C106.418 29.5847 106.84 27.7142 107.686 26.1134C108.531 24.5037 109.723 23.2537 111.26 22.3634C112.798 21.4641 114.61 21.0145 116.697 21.0145C118.171 21.0145 119.52 21.2438 120.743 21.7024C121.966 22.1611 123.023 22.84 123.913 23.7393C124.804 24.6386 125.496 25.7492 125.991 27.0712C126.485 28.3841 126.733 29.8905 126.733 31.5901V33.2358H108.724V29.4048H120.595C120.586 28.7034 120.42 28.0784 120.096 27.5298C119.772 26.9813 119.327 26.5541 118.76 26.2483C118.203 25.9336 117.56 25.7762 116.831 25.7762C116.094 25.7762 115.433 25.9426 114.849 26.2753C114.264 26.5991 113.801 27.0442 113.459 27.6108C113.117 28.1683 112.938 28.8023 112.92 29.5128V33.4112C112.92 34.2565 113.086 34.9984 113.419 35.6369C113.751 36.2664 114.224 36.7565 114.835 37.1073C115.447 37.458 116.175 37.6333 117.02 37.6333C117.605 37.6333 118.135 37.5524 118.612 37.3905C119.089 37.2287 119.498 36.9904 119.84 36.6756C120.181 36.3609 120.438 35.9742 120.608 35.5155L126.665 35.6909C126.413 37.0488 125.86 38.2314 125.006 39.2386C124.161 40.2368 123.05 41.0147 121.674 41.5722C120.298 42.1208 118.706 42.3951 116.899 42.3951Z"
    fill="#333333" />
  <path
    d="M140.972 49.7738V38.6451H140.838C140.559 39.2835 140.163 39.8816 139.65 40.4391C139.138 40.9967 138.495 41.4463 137.721 41.7881C136.957 42.1298 136.053 42.3007 135.01 42.3007C133.481 42.3007 132.092 41.905 130.842 41.1136C129.592 40.3222 128.594 39.1352 127.847 37.5524C127.101 35.9697 126.728 34.0047 126.728 31.6576C126.728 29.2205 127.114 27.2151 127.888 25.6413C128.661 24.0676 129.673 22.903 130.923 22.1476C132.182 21.3922 133.535 21.0145 134.983 21.0145C136.071 21.0145 137.002 21.2033 137.775 21.581C138.549 21.9497 139.187 22.4263 139.691 23.0109C140.195 23.5954 140.577 24.2024 140.838 24.8319H141.04V21.2843H147.569V49.7738H140.972ZM137.303 37.1612C138.104 37.1612 138.787 36.9364 139.354 36.4868C139.92 36.0281 140.356 35.3851 140.662 34.5578C140.968 33.7304 141.121 32.7592 141.121 31.6441C141.121 30.511 140.968 29.5352 140.662 28.7169C140.365 27.8985 139.929 27.269 139.354 26.8284C138.787 26.3877 138.104 26.1674 137.303 26.1674C136.485 26.1674 135.793 26.3922 135.226 26.8419C134.659 27.2915 134.228 27.9255 133.931 28.7439C133.643 29.5622 133.499 30.529 133.499 31.6441C133.499 32.7592 133.648 33.7304 133.944 34.5578C134.241 35.3851 134.668 36.0281 135.226 36.4868C135.793 36.9364 136.485 37.1612 137.303 37.1612Z"
    fill="#333333" />
  <path
    d="M162.449 33.0605V21.2843H169.032V42.0039H162.746V38.1459H162.53C162.072 39.4139 161.289 40.4211 160.183 41.1676C159.086 41.905 157.759 42.2737 156.204 42.2737C154.792 42.2737 153.551 41.9499 152.481 41.3025C151.41 40.655 150.579 39.7512 149.985 38.5911C149.392 37.422 149.09 36.0551 149.081 34.4903V21.2843H155.678V33.1953C155.687 34.3195 155.983 35.2053 156.568 35.8528C157.152 36.5002 157.948 36.824 158.955 36.824C159.612 36.824 160.201 36.6801 160.723 36.3923C161.253 36.0956 161.671 35.6684 161.977 35.1108C162.292 34.5443 162.449 33.8608 162.449 33.0605Z"
    fill="#333333" />
  <path
    d="M180.257 42.3951C178.09 42.3951 176.219 41.9679 174.645 41.1136C173.081 40.2503 171.876 39.0227 171.03 37.431C170.194 35.8303 169.776 33.9283 169.776 31.725C169.776 29.5847 170.198 27.7142 171.044 26.1134C171.889 24.5037 173.081 23.2537 174.618 22.3634C176.156 21.4641 177.968 21.0145 180.055 21.0145C181.529 21.0145 182.878 21.2438 184.101 21.7024C185.324 22.1611 186.381 22.84 187.271 23.7393C188.162 24.6386 188.854 25.7492 189.349 27.0712C189.843 28.3841 190.091 29.8905 190.091 31.5901V33.2358H172.082V29.4048H183.953C183.944 28.7034 183.778 28.0784 183.454 27.5298C183.13 26.9813 182.685 26.5541 182.118 26.2483C181.561 25.9336 180.918 25.7762 180.189 25.7762C179.452 25.7762 178.791 25.9426 178.207 26.2753C177.622 26.5991 177.159 27.0442 176.817 27.6108C176.475 28.1683 176.296 28.8023 176.278 29.5128V33.4112C176.278 34.2565 176.444 34.9984 176.777 35.6369C177.109 36.2664 177.582 36.7565 178.193 37.1073C178.805 37.458 179.533 37.6333 180.378 37.6333C180.963 37.6333 181.493 37.5524 181.97 37.3905C182.447 37.2287 182.856 36.9904 183.198 36.6756C183.539 36.3609 183.796 35.9742 183.966 35.5155L190.023 35.6909C189.771 37.0488 189.218 38.2314 188.364 39.2386C187.519 40.2368 186.408 41.0147 185.032 41.5722C183.656 42.1208 182.064 42.3951 180.257 42.3951Z"
    fill="#333333" />
  <path d="M197.397 14.3777V42.0039H190.801V14.3777H197.397Z" fill="#333333" />
</svg>